<svg width="22" height="22" viewBox="0 0 22 22" fill="none" xmlns="http://www.w3.org/2000/svg">
    <path d="M3.50002 3.99998H6.50002C6.77639 3.99998 7.00003 3.77634 7.00003 3.49997C7.00003 3.22359 6.77634 3 6.50002 3H3.50002C3.22364 3 3 3.22364 3 3.50001C3 3.77639 3.22364 3.99998 3.50002 3.99998Z" fill="black"></path>
    <path d="M6.50002 5.00098H3.50002C3.22364 5.00098 3 5.22462 3 5.50099C3 5.77732 3.22364 6.00096 3.50002 6.00096H6.50002C6.77639 6.00096 7.00003 5.77732 7.00003 5.50094C6.99998 5.22457 6.77634 5.00098 6.50002 5.00098Z" fill="black"></path>
    <path d="M12.5 3.99998H15.5C15.7764 3.99998 16 3.77634 16 3.49997C16 3.22359 15.7764 3 15.5 3H12.5C12.2236 3 12 3.22364 12 3.50001C12 3.77639 12.2236 3.99998 12.5 3.99998Z" fill="black"></path>
    <path d="M16 5.50002C16 5.22364 15.7764 5 15.5 5H12.5C12.2236 5 12 5.22364 12 5.50002C12 5.77639 12.2236 6.00003 12.5 6.00003H15.5C15.7764 6.00003 16 5.77639 16 5.50002Z" fill="black"></path>
    <path d="M7.50002 8C7.22364 8 7 8.22364 7 8.50002V10.5C7 10.7764 7.22364 11 7.50002 11C7.77639 11 8.00003 10.7764 8.00003 10.5V8.49997C8.00003 8.22359 7.77639 8 7.50002 8Z" fill="black"></path>
    <path d="M16 10.5C16 10.7764 16.2236 11.0001 16.5 11.0001C16.7764 11.0001 17 10.7764 17 10.5V8.50002C17 8.22364 16.7764 8 16.5 8C16.2236 8 16 8.22364 16 8.50002V10.5Z" fill="black"></path>
    <path d="M19 16C19.5523 16 20 15.5523 20 15C20 14.4477 19.5523 14 19 14C18.4477 14 18 14.4477 18 15C18 15.5523 18.4477 16 19 16Z" fill="black"></path>
    <path d="M19 12.0505V2.00002C19 0.896954 18.1026 0 17 0H11C10.4 0 9.86696 0.271172 9.50002 0.691219C9.13309 0.271172 8.60002 0 8.00002 0H2.00002C0.89747 0 0 0.896954 0 2.00002V16C0 17.1031 0.89747 18 2.00002 18H8.00002C8.60007 18 9.13309 17.7288 9.50002 17.3088C9.86696 17.7288 10.4 18 11 18H13.793L12.1465 19.6465C12.0527 19.7402 12 19.8672 12 20V21.5C12 21.7764 12.2237 22 12.5 22H14C14.1328 22 14.2598 21.9473 14.3536 21.8536L17.3917 18.816C17.752 18.938 18.1231 19 18.5001 19C20.4298 19 22.0001 17.4297 22.0001 15.5C22 13.7415 20.6917 12.2958 19 12.0505ZM9.00001 16C9.00001 16.5512 8.55174 17 8.00002 17H2.00002C1.44825 17 1.00003 16.5512 1.00003 16V2.00002C1.00003 1.44877 1.4483 1.00003 2.00002 1.00003H8.00002C8.55179 1.00003 9.00001 1.44877 9.00001 2.00002V16ZM11 17C10.4483 17 10 16.5513 10 16V2.00002C10 1.44877 10.4483 1.00003 11 1.00003H17C17.5518 1.00003 18 1.44877 18 2.00002V12.0505C16.3083 12.2958 15 13.7415 15 15.5C15 15.8765 15.0616 16.2481 15.1846 16.6084L14.793 17H11ZM18.5 18C18.1504 18 17.8057 17.9243 17.4756 17.7749C17.2832 17.688 17.0625 17.7305 16.916 17.877L13.793 21H13V20.207L16.123 17.084C16.2705 16.937 16.3105 16.7144 16.2256 16.5249C16.0762 16.1938 16 15.8486 16 15.5C16 14.1216 17.1211 13 18.5 13C19.8789 13 21 14.1216 21 15.5C21 16.8784 19.8789 18 18.5 18Z" fill="black"></path>
</svg>