<svg width="20" height="16" viewBox="0 0 20 16" fill="none" xmlns="http://www.w3.org/2000/svg">
    <path d="M6.36886 6.04968C7.94682 6.04968 9.226 4.80231 9.226 3.26361C9.226 1.7249 7.94682 0.477539 6.36886 0.477539C4.79091 0.477539 3.51172 1.7249 3.51172 3.26361C3.51172 4.80231 4.79091 6.04968 6.36886 6.04968Z" stroke="#333333" stroke-width="0.75" stroke-miterlimit="10"></path>
    <path d="M14.2868 5.8905C15.8648 5.8905 17.144 4.64313 17.144 3.10443C17.144 1.56573 15.8648 0.318359 14.2868 0.318359C12.7089 0.318359 11.4297 1.56573 11.4297 3.10443C11.4297 4.64313 12.7089 5.8905 14.2868 5.8905Z" stroke="#333333" stroke-width="0.75" stroke-miterlimit="10"></path>
    <path d="M1.55038 10.9053L1.46875 15.6814H18.4483V10.9849" stroke="#333333" stroke-width="0.75" stroke-miterlimit="10"></path>
    <path d="M17.2262 7.72127C16.9813 7.48246 16.6548 7.16405 16.2467 6.92525C15.1038 6.28843 13.4711 6.20883 12.165 7.00485C10.2875 8.11928 10.1242 10.2685 10.1242 10.4277C10.0426 12.0198 10.0426 13.6914 9.96094 15.2835" stroke="#333333" stroke-width="0.75" stroke-miterlimit="10"></path>
    <path d="M2.77734 7.72095C3.10387 7.48214 3.51204 7.16373 4.00183 6.92493C4.65489 6.60652 5.22632 6.28811 5.71612 6.12891C8.41 6.12891 11.1855 6.12891 13.8794 6.12891" stroke="#333333" stroke-width="0.75" stroke-miterlimit="10"></path>
    <path d="M0.979904 7.72114C0.163577 8.35796 0.00031188 9.79079 0.898271 10.6664C1.63296 11.144 2.53092 11.144 3.18399 10.6664C4.08194 10.0296 4.24521 8.67636 3.42888 7.95995C2.77582 7.24353 1.7146 7.16393 0.979904 7.72114Z" stroke="#333333" stroke-width="0.75" stroke-miterlimit="10"></path>
    <path d="M16.7338 7.80139C15.9175 8.4382 15.7542 9.87104 16.6522 10.7467C17.3869 11.2243 18.2848 11.2243 18.9379 10.7467C19.8359 10.1098 19.9175 8.75661 19.1828 7.96059C18.5297 7.32377 17.4685 7.32377 16.7338 7.80139Z" stroke="#333333" stroke-width="0.75" stroke-miterlimit="10"></path>
</svg>