<svg data-v-22cdc0ea="" width="158" height="36" viewBox="0 0 158 36" fill="none" xmlns="http://www.w3.org/2000/svg"><path d="M25.8428 0H12.9968V35.9265H25.8428V0Z" fill="#333333"></path> <path d="M38.7676 10.7265L27.2614 0H38.7676V10.7265Z" fill="#333333"></path> <path d="M0.150787 10.8L11.657 0H0.150787V10.8Z" fill="#333333"></path> <path d="M51.7712 6.31836H59.4946V8.44897H56.6574V15.2082H54.6084V8.44897H51.7712V6.31836Z" fill="#32373C"></path> <path d="M84.3197 10.3592H82.0342V15.2082H79.9851V10.3592H77.6996V8.44897H84.3197V10.3592Z" fill="#32373C"></path> <path d="M87.7085 8.44897V9.99183H89.1271C90.8609 9.99183 92.043 10.8735 92.043 12.6367C92.043 14.3265 90.8609 15.2816 89.1271 15.2816H85.6594V8.44897H87.7085ZM87.6297 13.4449H89.0482C89.6787 13.4449 89.994 13.0775 89.994 12.6367C89.994 12.1959 89.6787 11.8286 89.0482 11.8286H87.6297V13.4449Z" fill="#32373C"></path> <path d="M101.815 8.44897H103.786V10.9469L106.229 8.44897H108.908L105.677 11.7551L109.224 15.2082H106.465L103.786 12.6367V15.2082H101.815V8.44897Z" fill="#32373C"></path> <path d="M117.026 11.8286C117.026 13.8857 115.213 15.4286 113.085 15.4286C110.957 15.4286 109.145 13.8857 109.145 11.8286C109.145 9.77143 110.957 8.22858 113.085 8.22858C115.213 8.22858 117.026 9.69796 117.026 11.8286ZM114.977 11.8286C114.977 10.8735 114.11 10.2857 113.085 10.2857C112.061 10.2857 111.194 10.9469 111.194 11.8286C111.194 12.7837 112.061 13.3714 113.085 13.3714C114.11 13.3714 114.977 12.7102 114.977 11.8286Z" fill="#32373C"></path> <path d="M121.991 8.44897C123.488 8.44897 124.749 9.03673 124.749 10.4326C124.749 10.9469 124.513 11.2408 124.276 11.5347C124.749 11.902 125.064 12.3428 125.064 13.0775C125.064 14.4735 123.725 15.2082 122.306 15.2082H118.602V8.44897H121.991ZM120.493 11.0939H122.227C122.621 11.0939 122.858 10.8735 122.858 10.5796C122.858 10.2857 122.621 10.0653 122.227 10.0653H120.493V11.0939ZM120.493 13.5184H122.464C122.858 13.5184 123.094 13.298 123.094 13.0041C123.094 12.7102 122.858 12.4898 122.464 12.4898H120.493V13.5184Z" fill="#32373C"></path> <path d="M132.315 12.4898L132.945 14.1796C132.472 14.8408 131.29 15.4286 130.029 15.4286C127.901 15.4286 126.089 13.9592 126.089 11.8286C126.089 9.69796 127.901 8.22858 130.029 8.22858C131.29 8.22858 132.394 8.81633 132.867 9.47756L132.236 11.0939C131.921 10.6531 131.212 10.2857 130.187 10.2857C128.926 10.2857 128.138 10.9469 128.138 11.8286C128.138 12.7837 129.005 13.3714 130.187 13.3714C131.212 13.3714 131.921 12.9306 132.315 12.4898Z" fill="#32373C"></path> <path d="M134.522 8.44897H136.571V10.9469L139.014 8.44897H141.693L138.462 11.7551L141.93 15.2082H139.25L136.571 12.6367V15.2082H134.522V8.44897Z" fill="#32373C"></path> <path d="M151.308 11.0204C151.308 9.40409 152.648 8.37552 154.303 8.37552H157.692V15.1347H155.643V13.3714H155.012L153.515 15.1347H151.15L152.727 13.298C151.938 13.0041 151.308 12.1225 151.308 11.0204ZM155.643 10.2857H154.224C153.594 10.2857 153.278 10.6531 153.278 11.0939C153.278 11.5347 153.594 11.902 154.224 11.902H155.643V10.2857Z" fill="#32373C"></path> <path d="M93.3828 11.0204C93.3828 9.40409 94.7225 8.37552 96.3776 8.37552H99.7664V15.1347H97.7173V13.3714H97.0869L95.5895 15.1347H93.2252L94.8014 13.298C94.0133 13.0041 93.3828 12.1225 93.3828 11.0204ZM97.7173 10.2857H96.2988C95.6683 10.2857 95.353 10.6531 95.353 11.0939C95.353 11.5347 95.6683 11.902 96.2988 11.902H97.7173V10.2857Z" fill="#32373C"></path> <path d="M102.84 25.7878C102.84 24.1714 104.18 23.1429 105.835 23.1429H109.224V29.902H107.175V28.1388H106.465L104.968 29.902H102.604L104.18 28.0653C103.47 27.7714 102.84 26.8898 102.84 25.7878ZM107.175 24.9796H105.756C105.125 24.9796 104.81 25.3469 104.81 25.7878C104.81 26.2286 105.125 26.5959 105.756 26.5959H107.175V24.9796Z" fill="#32373C"></path> <path d="M57.9972 23.1429V25.1265H54.6872V29.902H52.6381V23.1429H57.9972Z" fill="#32373C"></path> <path d="M67.6908 28.1388C68.7941 28.1388 69.4246 27.9918 69.5034 23.8775V23.1429H75.1777V29.902H73.2075V25.1265H71.3949V25.6408C71.2372 28.7265 70.3703 29.902 68.8729 29.902C68.5577 29.902 68.2425 29.8286 68.0848 29.7551L67.6908 28.1388Z" fill="#32373C"></path> <path d="M76.7539 12.4163H71.4737C71.6313 13.151 72.4194 13.5918 73.5227 13.5918C74.3896 13.5918 75.2565 13.298 75.6506 12.8571L76.2811 14.2531C75.8082 14.9143 74.6261 15.4286 73.3651 15.4286C71.1584 15.4286 69.4246 14.0327 69.4246 11.8286C69.4246 9.91837 70.922 8.22858 73.2075 8.22858C75.4142 8.22858 76.8327 9.91837 76.8327 11.8286C76.8327 12.049 76.7539 12.2694 76.7539 12.4163ZM74.7837 11.0939C74.6261 10.4327 73.9956 10.0653 73.2075 10.0653C72.4194 10.0653 71.7101 10.4327 71.5525 11.0939H74.7837Z" fill="#32373C"></path> <path data-v-22cdc0ea="" d="M84.162 27.1102H78.8818C79.0394 27.8449 79.8275 28.2857 80.9308 28.2857C81.7978 28.2857 82.6647 27.9918 83.0587 27.551L83.6892 28.9469C83.2163 29.6816 82.0342 30.1225 80.7732 30.1225C78.5665 30.1225 76.8327 28.7265 76.8327 26.5225C76.8327 24.6122 78.3301 22.9225 80.6156 22.9225C82.8223 22.9225 84.2409 24.6122 84.2409 26.5225C84.162 26.7429 84.162 26.9633 84.162 27.1102ZM82.113 25.7878C81.9554 25.1265 81.3249 24.7592 80.5368 24.7592C79.7487 24.7592 79.0394 25.1265 78.8818 25.7878H82.113Z" fill="#32373C"></path> <path d="M101.737 27.1102H96.4564C96.614 27.8449 97.4021 28.2857 98.5054 28.2857C99.3723 28.2857 100.239 27.9918 100.633 27.551L101.264 28.9469C100.791 29.6816 99.6088 30.1225 98.3478 30.1225C96.1411 30.1225 94.4073 28.7265 94.4073 26.5225C94.4073 24.6122 95.9047 22.9225 98.1902 22.9225C100.397 22.9225 101.815 24.6122 101.815 26.5225C101.815 26.7429 101.815 26.9633 101.737 27.1102ZM99.7664 25.7878C99.6088 25.1265 98.9783 24.7592 98.1902 24.7592C97.4021 24.7592 96.6928 25.1265 96.5352 25.7878H99.7664Z" fill="#32373C"></path> <path data-v-22cdc0ea="" d="M145.713 8.22858C146.816 8.22858 147.604 8.59592 147.84 9.11021V8.37552H149.811V15.1347H147.84V14.4C147.604 14.9143 146.895 15.2816 145.713 15.2816C143.821 15.2816 142.087 13.8123 142.087 11.6816C142.087 9.69797 143.742 8.22858 145.713 8.22858ZM146.028 13.3714C146.895 13.3714 147.525 13.0041 147.762 12.5633V11.0204C147.525 10.5796 146.895 10.2123 146.028 10.2123C144.924 10.2123 144.136 10.8735 144.136 11.7551C144.136 12.7102 144.924 13.3714 146.028 13.3714Z" fill="#32373C"></path> <path data-v-22cdc0ea="" d="M62.4893 22.9225C63.5927 22.9225 64.3808 23.2898 64.6172 23.8041V23.0694H66.5874V29.8286H64.6172V29.1674C64.3808 29.6816 63.6715 30.049 62.4893 30.049C60.5979 30.049 58.8641 28.5796 58.8641 26.449C58.9429 24.3184 60.5979 22.9225 62.4893 22.9225ZM62.8834 28.0653C63.7503 28.0653 64.3808 27.698 64.6172 27.2571V25.7143C64.3808 25.2735 63.7503 24.9061 62.8834 24.9061C61.78 24.9061 60.9919 25.5674 60.9919 26.449C60.9919 27.4041 61.7012 28.0653 62.8834 28.0653Z" fill="#32373C"></path> <path data-v-22cdc0ea="" d="M64.6172 15.3551C63.5139 15.3551 62.8046 14.9878 62.5682 14.4735V17.9265H60.5191V8.44897H62.4893V9.18367C62.7258 8.66938 63.4351 8.30203 64.6172 8.30203C66.5086 8.30203 68.2425 9.77142 68.2425 11.902C68.2425 13.9592 66.5086 15.3551 64.6172 15.3551ZM64.302 10.2122C63.4351 10.2122 62.8046 10.5796 62.5682 11.0204V12.5633C62.8046 13.0041 63.4351 13.3714 64.302 13.3714C65.4053 13.3714 66.1934 12.7102 66.1934 11.8286C66.1934 10.8735 65.4053 10.2122 64.302 10.2122Z" fill="#32373C"></path> <path data-v-22cdc0ea="" d="M87.7873 32.6939V29.2408C88.0237 29.7551 88.733 30.1225 89.8364 30.1225C91.649 30.1225 93.304 28.6531 93.304 26.5225C93.304 24.3918 91.649 22.9225 89.8364 22.9225C88.733 22.9225 88.0237 23.2898 87.7085 23.8041V23.0694H85.7383V26.449V32.6939H87.7873ZM87.7873 25.7143C88.0237 25.2735 88.733 24.9061 89.4423 24.9061C90.5457 24.9061 91.2549 25.5674 91.2549 26.449C91.2549 27.3306 90.5457 27.9918 89.4423 27.9918C88.6542 27.9918 87.9449 27.6245 87.7873 27.1837V26.3755V25.7143Z" fill="#32373C"></path></svg>