<svg width="19" height="21" viewBox="0 0 19 21" fill="none" xmlns="http://www.w3.org/2000/svg">
    <path d="M18.6672 10.6274C18.4505 9.6781 17.6316 8.98351 16.6683 8.8909C14.3804 8.63622 12.0684 8.63622 9.75642 8.63622C7.44443 8.63622 5.13245 8.63622 2.84454 8.8909C1.88122 8.98351 1.08647 9.70125 0.845639 10.6274C0.556641 11.9702 0.556641 13.4289 0.556641 14.8181C0.556641 16.2072 0.556641 17.6659 0.869722 19.0088C1.08647 19.958 1.9053 20.6526 2.86863 20.7452C5.15653 20.9999 7.46852 20.9999 9.7805 20.9999C12.0925 20.9999 14.4045 20.9999 16.6924 20.7452C17.6557 20.6526 18.4505 19.9349 18.6913 19.0088C19.0044 17.6659 19.0044 16.2072 19.0044 14.8181C18.9803 13.4289 19.0044 11.9702 18.6672 10.6274ZM5.80678 11.6693H4.4822V18.4762H3.25396V11.6693H1.92938V10.5579H5.80678V11.6693ZM9.17842 18.4762H8.0706V17.828C7.6371 18.3142 7.2036 18.5457 6.79419 18.5457C6.43294 18.5457 6.19211 18.4068 6.07169 18.1058C5.99944 17.9206 5.97536 17.6427 5.97536 17.226V12.5722H7.08319V16.925C7.08319 17.1797 7.08319 17.2954 7.08319 17.3417C7.10727 17.5038 7.2036 17.5964 7.3481 17.5964C7.56485 17.5964 7.80568 17.4344 8.04651 17.0871V12.5722H9.15434L9.17842 18.4762ZM13.4171 16.7166C13.4171 17.2723 13.3689 17.6659 13.2967 17.8974C13.1522 18.3373 12.8391 18.5689 12.4056 18.5689C12.0202 18.5689 11.6349 18.3605 11.2496 17.9206V18.4994H10.1418V10.5579H11.2496V13.1511C11.6108 12.7343 11.9962 12.5028 12.4056 12.5028C12.8391 12.5028 13.1522 12.7343 13.2967 13.1742C13.3689 13.4057 13.4171 13.7993 13.4171 14.355V16.7166ZM17.6075 15.721H15.3678V16.7629C15.3678 17.3186 15.5605 17.5733 15.9458 17.5733C16.2107 17.5733 16.3793 17.4344 16.4515 17.1334C16.4515 17.0639 16.4756 16.8324 16.4756 16.4156H17.6075V16.5777C17.6075 16.925 17.5835 17.1565 17.5835 17.2723C17.5353 17.5038 17.463 17.7353 17.3185 17.9206C17.0055 18.3605 16.5479 18.5689 15.9699 18.5689C15.3919 18.5689 14.9343 18.3605 14.6212 17.9669C14.3804 17.6659 14.26 17.2028 14.26 16.5777V14.5171C14.26 13.8919 14.3563 13.4289 14.5971 13.1279C14.9102 12.7343 15.3678 12.5259 15.9217 12.5259C16.4756 12.5259 16.9332 12.7343 17.2463 13.1279C17.4871 13.4289 17.5835 13.8919 17.5835 14.5171L17.6075 15.721Z" fill="#ffffff"></path>
    <path d="M15.946 13.4748C15.5848 13.4748 15.3921 13.7527 15.3921 14.2852V14.8409H16.4999V14.2852C16.4999 13.7295 16.3073 13.4748 15.946 13.4748Z" fill="#ffffff"></path>
    <path d="M11.8034 13.4748C11.6108 13.4748 11.4422 13.5674 11.2495 13.7295V17.3414C11.4422 17.5266 11.6108 17.5961 11.8034 17.5961C12.1165 17.5961 12.2851 17.3414 12.2851 16.8089V14.262C12.3092 13.7295 12.1406 13.4748 11.8034 13.4748Z" fill="#ffffff"></path>
    <path d="M12.4295 8.10373C12.8389 8.10373 13.2724 7.8722 13.7059 7.36284V8.01112H14.8378V2.03765H13.7059V6.59879C13.4651 6.94608 13.2242 7.10816 12.9834 7.10816C12.8389 7.10816 12.7426 7.01554 12.7185 6.85347C12.6944 6.80717 12.6944 6.6914 12.6944 6.43672V2.03765H11.5625V6.76086C11.5625 7.17761 11.6107 7.4786 11.6588 7.64067C11.8274 7.96482 12.0682 8.10373 12.4295 8.10373Z" fill="#999999" fill-opacity="0.59"></path>
    <path d="M4.60267 4.76952V8.01094H5.855V4.76952L7.34816 0H6.09583L5.25292 3.14881L4.33776 0H3.01318C3.2781 0.740896 3.54301 1.48179 3.80793 2.22269C4.24143 3.35719 4.48226 4.19069 4.60267 4.76952Z" fill="#ffffff"></path>
    <path d="M9.03381 8.10344C9.58772 8.10344 10.0453 7.89506 10.3584 7.50146C10.5992 7.20047 10.7196 6.73741 10.7196 6.08913V4.00536C10.7196 3.35708 10.5992 2.89402 10.3584 2.59303C10.0453 2.17627 9.61181 1.99105 9.03381 1.99105C8.4799 1.99105 8.0464 2.19943 7.73332 2.59303C7.49249 2.89402 7.37207 3.35708 7.37207 4.00536V6.08913C7.37207 6.71426 7.49249 7.20047 7.73332 7.50146C8.02232 7.89506 8.45581 8.10344 9.03381 8.10344ZM8.4799 3.77383C8.4799 3.21816 8.64848 2.94032 9.00973 2.94032C9.37098 2.94032 9.53956 3.21816 9.53956 3.77383V6.29751C9.53956 6.85318 9.37098 7.13102 9.00973 7.13102C8.64848 7.13102 8.4799 6.85318 8.4799 6.29751V3.77383Z" fill="#ffffff"></path>
</svg>