<svg width="24" height="23" viewBox="0 0 24 23" fill="none" xmlns="http://www.w3.org/2000/svg">
    <path d="M14.1687 18.184C13.6367 19.1467 12.887 19.9112 11.9187 20.4776C10.9506 21.0436 9.89379 21.327 8.74824 21.327C7.06632 21.327 5.62771 20.7544 4.43221 19.6086C3.2368 18.4631 2.63905 17.0842 2.63905 15.4723C2.63905 14.3137 2.97076 13.2488 3.63447 12.2771C4.29809 11.3058 5.18452 10.5847 6.29352 10.1143L6.06173 8.40234C4.51622 8.9426 3.26861 9.86167 2.31851 11.1598C1.36851 12.4579 0.893555 13.8956 0.893555 15.4723C0.893555 16.8318 1.24585 18.0884 1.95035 19.2427C2.65486 20.397 3.6094 21.3118 4.81393 21.9869C6.01831 22.662 7.32997 22.9994 8.74805 22.9994C10.4481 22.9994 11.9891 22.516 13.3708 21.5489C14.7526 20.5821 15.7072 19.3187 16.2345 17.7591L14.8437 15.0933C14.9255 16.1912 14.7006 17.2212 14.1687 18.184Z" fill="black"></path>
    <path d="M22.3162 16.4007L19.6163 17.6945L16.5071 11.7485C16.3525 11.4436 16.0933 11.2911 15.7297 11.2911H9.52501L9.30683 9.61844H14.8571V7.94559H9.08889L8.58422 4.16879C9.20256 4.22972 9.74801 4.04896 10.2207 3.62648C10.6935 3.20395 10.9299 2.69212 10.9299 2.09094C10.9299 1.51595 10.7163 1.02366 10.289 0.614132C9.8615 0.20465 9.34776 0 8.74791 0C8.25705 0 7.81601 0.137135 7.42516 0.411588C7.03418 0.686041 6.77511 1.04527 6.64787 1.48958C6.57503 1.71625 6.54776 1.89911 6.56605 2.03853L7.87504 12.2188C7.90236 12.4282 7.99994 12.6043 8.16811 12.7484C8.33629 12.8919 8.52949 12.964 8.74772 12.964H15.1841L18.4437 19.1977C18.5983 19.5023 18.8572 19.655 19.2212 19.655C19.3667 19.655 19.4983 19.6246 19.6166 19.5636L23.1069 17.8906L22.3162 16.4007Z" fill="black"></path>
</svg>