<svg width="23" height="19" viewBox="0 0 23 19" fill="none" xmlns="http://www.w3.org/2000/svg">
    <path d="M22.2348 3.26858C21.7757 2.7876 21.1416 2.50337 20.4202 2.50337H16.7909V2.45965C16.7909 1.91307 16.5722 1.38836 16.2006 1.03855C15.8289 0.666873 15.326 0.448242 14.7795 0.448242H8.22053C7.65209 0.448242 7.14924 0.666873 6.77757 1.03855C6.40589 1.41022 6.18726 1.91307 6.18726 2.45965V2.50337H2.57985C1.85837 2.50337 1.22433 2.7876 0.765209 3.26858C0.306084 3.72771 0 4.3836 0 5.08322V15.9711C0 16.6925 0.284221 17.3266 0.765209 17.7857C1.22433 18.2448 1.88023 18.5509 2.57985 18.5509H20.4202C21.1416 18.5509 21.7757 18.2667 22.2348 17.7857C22.6939 17.3266 23 16.6707 23 15.9711V5.08322C23 4.36174 22.7158 3.72771 22.2348 3.26858ZM21.8631 15.9711H21.8413C21.8413 16.3646 21.6882 16.7144 21.4259 16.9768C21.1635 17.2391 20.8137 17.3922 20.4202 17.3922H2.57985C2.18631 17.3922 1.8365 17.2391 1.57414 16.9768C1.31179 16.7144 1.15875 16.3646 1.15875 15.9711V5.08322C1.15875 4.68969 1.31179 4.33988 1.57414 4.07752C1.8365 3.81516 2.18631 3.66212 2.57985 3.66212H6.79943C7.12738 3.66212 7.38973 3.39976 7.38973 3.07182V2.43779C7.38973 2.19729 7.47719 1.97866 7.63023 1.82562C7.78327 1.67258 8.0019 1.58512 8.2424 1.58512H14.7795C15.02 1.58512 15.2386 1.67258 15.3916 1.82562C15.5447 1.97866 15.6321 2.19729 15.6321 2.43779V3.07182C15.6321 3.39976 15.8945 3.66212 16.2224 3.66212H20.442C20.8356 3.66212 21.1854 3.81516 21.4477 4.07752C21.7101 4.33988 21.8631 4.68969 21.8631 5.08322V15.9711Z" fill="#999999"></path>
    <path d="M11.5004 5.14941C10.0137 5.14941 8.65819 5.76158 7.69622 6.72356C6.71237 7.7074 6.12207 9.04105 6.12207 10.5277C6.12207 12.0144 6.73424 13.3699 7.69622 14.3319C8.68006 15.3158 10.0137 15.9061 11.5004 15.9061C12.9871 15.9061 14.3426 15.2939 15.3046 14.3319C16.2884 13.3481 16.8787 12.0144 16.8787 10.5277C16.8787 9.04105 16.2666 7.68554 15.3046 6.72356C14.3426 5.76158 12.9871 5.14941 11.5004 5.14941ZM14.4738 13.523C13.7086 14.2663 12.6591 14.7473 11.5004 14.7473C10.3417 14.7473 9.29222 14.2663 8.52701 13.523C7.7618 12.7578 7.30268 11.7084 7.30268 10.5496C7.30268 9.39086 7.78367 8.34143 8.52701 7.57622C9.29222 6.81101 10.3417 6.35189 11.5004 6.35189C12.6591 6.35189 13.7086 6.83287 14.4738 7.57622C15.239 8.34143 15.6981 9.39086 15.6981 10.5496C15.72 11.7084 15.239 12.7578 14.4738 13.523Z" fill="#999999"></path>
    <path d="M19.2832 7.26954C19.8749 7.26954 20.3545 6.7899 20.3545 6.19825C20.3545 5.60659 19.8749 5.12695 19.2832 5.12695C18.6915 5.12695 18.2119 5.60659 18.2119 6.19825C18.2119 6.7899 18.6915 7.26954 19.2832 7.26954Z" fill="#999999"></path>
</svg>