<svg width="17" height="19" viewBox="0 0 17 19" fill="none" xmlns="http://www.w3.org/2000/svg">
    <path d="M16.2744 15.56L14.8696 12.9357C14.2227 11.7244 13.8821 10.3414 13.8821 8.9283V6.6304C13.8821 3.09551 11.3174 0.217773 8.16329 0.217773C5.00916 0.217773 2.44834 3.09551 2.44834 6.6304V8.9283C2.44834 10.3414 2.10767 11.7244 1.46076 12.9357L0.0559519 15.56C-0.0206046 15.7017 -0.0206046 15.8778 0.0521241 16.0196C0.124853 16.1613 0.262654 16.2515 0.408112 16.2515H15.9223C16.0677 16.2515 16.2055 16.1613 16.2783 16.0196C16.351 15.8778 16.3472 15.7017 16.2744 15.56ZM1.12774 15.3366L2.15743 13.4081C2.88089 12.0552 3.26367 10.5089 3.26367 8.9283V6.6304C3.26367 3.59804 5.46084 1.13264 8.16329 1.13264C10.8657 1.13264 13.0629 3.59804 13.0629 6.6304V8.9283C13.0629 10.5046 13.4457 12.0552 14.1691 13.4081L15.2027 15.3366H1.12774Z" fill="#333333"></path>
    <path d="M9.93376 15.5638C9.81893 15.3448 9.57012 15.276 9.3749 15.4006C9.17968 15.5294 9.11461 15.8086 9.22944 16.0277C9.33662 16.2296 9.39404 16.4744 9.39404 16.7106C9.39404 17.4665 8.84283 18.085 8.16913 18.085C7.49544 18.085 6.94423 17.4665 6.94423 16.7106C6.94423 16.4701 7.00165 16.2296 7.10883 16.0277C7.22366 15.8086 7.15859 15.5294 6.96337 15.4006C6.76815 15.276 6.51934 15.3448 6.40451 15.5638C6.2246 15.9117 6.12891 16.3069 6.12891 16.7106C6.12891 17.9734 7.04376 18.9999 8.16913 18.9999C9.29451 18.9999 10.2094 17.9734 10.2132 16.7106C10.2094 16.3069 10.1137 15.9074 9.93376 15.5638Z" fill="#333333"></path>
</svg>