<svg data-v-22cdc0ea="" width="223" height="85" viewBox="0 0 223 85" fill="none" xmlns="http://www.w3.org/2000/svg"><path d="M51.0201 21.25H36.4045V63.6633H51.0201V21.25Z" fill="#333333"></path> <path data-v-22cdc0ea="" d="M65.7254 33.9133L52.6341 21.25H65.7254V33.9133Z" fill="#333333"></path> <path data-v-22cdc0ea="" d="M21.7889 34L34.8802 21.25H21.7889V34Z" fill="#333333"></path> <path d="M80.5203 28.7092H89.3075V31.2245H86.0796V39.2041H83.7482V31.2245H80.5203V28.7092Z" fill="#32373C"></path> <path d="M117.552 33.4797H114.952V39.2042H112.621V33.4797H110.02V31.2246H117.552V33.4797Z" fill="#32373C"></path> <path data-v-22cdc0ea="" d="M121.408 31.2246V33.046H123.022C124.995 33.046 126.34 34.0869 126.34 36.1685C126.34 38.1634 124.995 39.2909 123.022 39.2909H119.077V31.2246H121.408ZM121.318 37.1226H122.932C123.65 37.1226 124.008 36.6889 124.008 36.1685C124.008 35.6481 123.65 35.2144 122.932 35.2144H121.318V37.1226Z" fill="#32373C"></path> <path data-v-22cdc0ea="" d="M137.458 31.2246H139.7V34.1736L142.48 31.2246H145.528L141.852 35.1277L145.887 39.2042H142.749L139.7 36.1685V39.2042H137.458V31.2246Z" fill="#32373C"></path> <path data-v-22cdc0ea="" d="M154.764 35.2144C154.764 37.6429 152.702 39.4644 150.281 39.4644C147.86 39.4644 145.797 37.6429 145.797 35.2144C145.797 32.7858 147.86 30.9644 150.281 30.9644C152.702 30.9644 154.764 32.699 154.764 35.2144ZM152.433 35.2144C152.433 34.0868 151.446 33.3929 150.281 33.3929C149.115 33.3929 148.129 34.1735 148.129 35.2144C148.129 36.3419 149.115 37.0358 150.281 37.0358C151.446 37.0358 152.433 36.2552 152.433 35.2144Z" fill="#32373C"></path> <path data-v-22cdc0ea="" d="M160.413 31.2246C162.117 31.2246 163.551 31.9185 163.551 33.5664C163.551 34.1736 163.282 34.5205 163.013 34.8675C163.551 35.3011 163.91 35.8215 163.91 36.6889C163.91 38.3369 162.386 39.2042 160.772 39.2042H156.557V31.2246H160.413ZM158.709 34.3471H160.682C161.13 34.3471 161.399 34.0869 161.399 33.7399C161.399 33.393 161.13 33.1328 160.682 33.1328H158.709V34.3471ZM158.709 37.2093H160.951C161.399 37.2093 161.668 36.9491 161.668 36.6022C161.668 36.2552 161.399 35.995 160.951 35.995H158.709V37.2093Z" fill="#32373C"></path> <path  d="M172.159 35.995L172.877 37.9899C172.339 38.7705 170.994 39.4644 169.559 39.4644C167.138 39.4644 165.076 37.7297 165.076 35.2144C165.076 32.699 167.138 30.9644 169.559 30.9644C170.994 30.9644 172.249 31.6582 172.787 32.4388L172.07 34.347C171.711 33.8266 170.904 33.3929 169.738 33.3929C168.304 33.3929 167.407 34.1735 167.407 35.2144C167.407 36.3419 168.393 37.0358 169.738 37.0358C170.904 37.0358 171.711 36.5154 172.159 35.995Z" fill="#32373C"></path> <path  d="M174.67 31.2246H177.001V34.1736L179.781 31.2246H182.829L179.153 35.1277L183.098 39.2042H180.05L177.001 36.1685V39.2042H174.67V31.2246Z" fill="#32373C"></path> <path  d="M193.769 34.2601C193.769 32.352 195.293 31.1377 197.176 31.1377H201.032V39.1173H198.7V37.0356H197.983L196.279 39.1173H193.589L195.383 36.9489C194.486 36.602 193.769 35.5612 193.769 34.2601ZM198.7 33.3928H197.086C196.369 33.3928 196.01 33.8265 196.01 34.3469C196.01 34.8673 196.369 35.301 197.086 35.301H198.7V33.3928Z" fill="#32373C"></path> <path  d="M127.864 34.2601C127.864 32.352 129.388 31.1377 131.271 31.1377H135.127V39.1173H132.796V37.0356H132.078L130.375 39.1173H127.685L129.478 36.9489C128.581 36.602 127.864 35.5612 127.864 34.2601ZM132.796 33.3928H131.182C130.464 33.3928 130.106 33.8265 130.106 34.3469C130.106 34.8673 130.464 35.301 131.182 35.301H132.796V33.3928Z" fill="#32373C"></path> <path  d="M138.624 51.694C138.624 49.7858 140.148 48.5715 142.031 48.5715H145.887V56.5511H143.556V54.4695H142.749L141.045 56.5511H138.355L140.148 54.3828C139.341 54.0358 138.624 52.995 138.624 51.694ZM143.556 50.7399H141.942C141.224 50.7399 140.866 51.1736 140.866 51.694C140.866 52.2144 141.224 52.6481 141.942 52.6481H143.556V50.7399Z" fill="#32373C"></path> <path  d="M87.6039 48.5715V50.9134H83.838V56.5511H81.5067V48.5715H87.6039Z" fill="#32373C"></path> <path  d="M98.6329 54.4695C99.8882 54.4695 100.606 54.296 100.695 49.4389V48.5715H107.151V56.5511H104.91V50.9134H102.847V51.5205C102.668 55.1634 101.682 56.5511 99.9779 56.5511C99.6192 56.5511 99.2605 56.4644 99.0812 56.3777L98.6329 54.4695Z" fill="#32373C"></path> <path  d="M108.944 35.9082H102.937C103.116 36.7756 104.013 37.296 105.268 37.296C106.255 37.296 107.241 36.949 107.689 36.4286L108.407 38.0766C107.869 38.8572 106.524 39.4644 105.089 39.4644C102.578 39.4644 100.606 37.8164 100.606 35.2144C100.606 32.9593 102.309 30.9644 104.91 30.9644C107.42 30.9644 109.034 32.9593 109.034 35.2144C109.034 35.4746 108.944 35.7348 108.944 35.9082ZM106.703 34.347C106.524 33.5664 105.806 33.1327 104.91 33.1327C104.013 33.1327 103.206 33.5664 103.027 34.347H106.703Z" fill="#32373C"></path> <path  d="M117.373 53.2552H111.365C111.545 54.1225 112.441 54.6429 113.697 54.6429C114.683 54.6429 115.669 54.296 116.118 53.7756L116.835 55.4235C116.297 56.2909 114.952 56.8113 113.517 56.8113C111.007 56.8113 109.034 55.1633 109.034 52.5613C109.034 50.3062 110.738 48.3113 113.338 48.3113C115.849 48.3113 117.463 50.3062 117.463 52.5613C117.373 52.8215 117.373 53.0817 117.373 53.2552ZM115.042 51.6939C114.862 50.9133 114.145 50.4796 113.248 50.4796C112.352 50.4796 111.545 50.9133 111.365 51.6939H115.042Z" fill="#32373C"></path> <path  d="M137.369 53.2552H131.361C131.54 54.1225 132.437 54.6429 133.692 54.6429C134.679 54.6429 135.665 54.296 136.113 53.7756L136.831 55.4235C136.293 56.2909 134.948 56.8113 133.513 56.8113C131.002 56.8113 129.03 55.1633 129.03 52.5613C129.03 50.3062 130.733 48.3113 133.334 48.3113C135.844 48.3113 137.458 50.3062 137.458 52.5613C137.458 52.8215 137.458 53.0817 137.369 53.2552ZM135.127 51.6939C134.948 50.9133 134.23 50.4796 133.334 50.4796C132.437 50.4796 131.63 50.9133 131.451 51.6939H135.127Z" fill="#32373C"></path> <path  d="M187.402 30.9644C188.658 30.9644 189.554 31.398 189.823 32.0052V31.1378H192.065V39.1174H189.823V38.2501C189.554 38.8572 188.747 39.2909 187.402 39.2909C185.25 39.2909 183.278 37.5562 183.278 35.0409C183.278 32.6991 185.161 30.9644 187.402 30.9644ZM187.761 37.0358C188.747 37.0358 189.465 36.6021 189.734 36.0817V34.2603C189.465 33.7399 188.747 33.3062 187.761 33.3062C186.506 33.3062 185.609 34.0868 185.609 35.1276C185.609 36.2552 186.506 37.0358 187.761 37.0358Z" fill="#32373C"></path> <path  d="M92.7149 48.3113C93.9702 48.3113 94.8669 48.745 95.1359 49.3521V48.4847H97.3775V56.4643H95.1359V55.6837C94.8669 56.2909 94.0599 56.7245 92.7149 56.7245C90.5629 56.7245 88.5902 54.9899 88.5902 52.4745C88.6799 49.9592 90.5629 48.3113 92.7149 48.3113ZM93.1632 54.3827C94.1495 54.3827 94.8669 53.949 95.1359 53.4286V51.6072C94.8669 51.0868 94.1495 50.6531 93.1632 50.6531C91.9079 50.6531 91.0112 51.4337 91.0112 52.4745C91.0112 53.6021 91.8182 54.3827 93.1632 54.3827Z" fill="#32373C"></path> <path  d="M95.1359 39.3776C93.8806 39.3776 93.0736 38.9439 92.8046 38.3367V42.4133H90.4733V31.2245H92.7149V32.0918C92.9839 31.4847 93.7909 31.051 95.1359 31.051C97.2879 31.051 99.2606 32.7857 99.2606 35.301C99.2606 37.7296 97.2879 39.3776 95.1359 39.3776ZM94.7772 33.3061C93.7909 33.3061 93.0736 33.7398 92.8046 34.2602V36.0816C93.0736 36.602 93.7909 37.0357 94.7772 37.0357C96.0326 37.0357 96.9292 36.2551 96.9292 35.2143C96.9292 34.0867 96.0326 33.3061 94.7772 33.3061Z" fill="#32373C"></path> <path  d="M121.498 59.847V55.7705C121.767 56.3776 122.574 56.8113 123.829 56.8113C125.891 56.8113 127.774 55.0766 127.774 52.5613C127.774 50.046 125.891 48.3113 123.829 48.3113C122.574 48.3113 121.767 48.745 121.408 49.3521V48.4847H119.166V52.4745V59.847H121.498ZM121.498 51.6072C121.767 51.0868 122.574 50.6531 123.381 50.6531C124.636 50.6531 125.443 51.4337 125.443 52.4745C125.443 53.5154 124.636 54.296 123.381 54.296C122.484 54.296 121.677 53.8623 121.498 53.3419V52.3878V51.6072Z" fill="#32373C"></path></svg>