<svg width="20" height="16" viewBox="0 0 20 16" fill="none" xmlns="http://www.w3.org/2000/svg" data-v-ba3e2df6=""><path d="M6.36691 6.04968C7.94486 6.04968 9.22405 4.80231 9.22405 3.26361C9.22405 1.7249 7.94486 0.477539 6.36691 0.477539C4.78895 0.477539 3.50977 1.7249 3.50977 3.26361C3.50977 4.80231 4.78895 6.04968 6.36691 6.04968Z" stroke="white" stroke-width="0.75" stroke-miterlimit="10"></path> <path d="M14.2859 5.8905C15.8638 5.8905 17.143 4.64313 17.143 3.10443C17.143 1.56573 15.8638 0.318359 14.2859 0.318359C12.7079 0.318359 11.4287 1.56573 11.4287 3.10443C11.4287 4.64313 12.7079 5.8905 14.2859 5.8905Z" stroke="white" stroke-width="0.75" stroke-miterlimit="10"></path> <path d="M1.55136 10.9053L1.46973 15.6814H18.4493V10.9849" stroke="white" stroke-width="0.75" stroke-miterlimit="10"></path> <path d="M17.2243 7.72127C16.9794 7.48246 16.6529 7.16405 16.2447 6.92525C15.1018 6.28843 13.4692 6.20883 12.1631 7.00485C10.2855 8.11928 10.1222 10.2685 10.1222 10.4277C10.0406 12.0198 10.0406 13.6914 9.95898 15.2835" stroke="white" stroke-width="0.75" stroke-miterlimit="10"></path> <path d="M2.77539 7.72095C3.10192 7.48214 3.51008 7.16373 3.99988 6.92493C4.65294 6.60652 5.22437 6.28811 5.71417 6.12891C8.40804 6.12891 11.1836 6.12891 13.8774 6.12891" stroke="white" stroke-width="0.75" stroke-miterlimit="10"></path> <path d="M0.979904 7.72114C0.163577 8.35796 0.00031188 9.79079 0.898271 10.6664C1.63296 11.144 2.53092 11.144 3.18399 10.6664C4.08194 10.0296 4.24521 8.67636 3.42888 7.95995C2.77582 7.24353 1.7146 7.16393 0.979904 7.72114Z" stroke="white" stroke-width="0.75" stroke-miterlimit="10"></path> <path d="M16.7348 7.80139C15.9185 8.4382 15.7552 9.87104 16.6532 10.7467C17.3878 11.2243 18.2858 11.2243 18.9389 10.7467C19.8368 10.1098 19.9185 8.75661 19.1838 7.96059C18.5307 7.32377 17.4695 7.32377 16.7348 7.80139Z" stroke="white" stroke-width="0.75" stroke-miterlimit="10"></path></svg>