<svg width="11" height="11" viewBox="0 0 11 11" fill="none" xmlns="http://www.w3.org/2000/svg" data-v-4fb6f045=""><path fill-rule="evenodd" clip-rule="evenodd" d="M5.20171 10.4002C2.42893 10.4002 0.181152 8.11685 0.181152 5.3002C0.181152 2.48354 2.42893 0.200195 5.20171 0.200195C7.97449 0.200195 10.2223 2.48354 10.2223 5.3002C10.2223 8.11685 7.97449 10.4002 5.20171 10.4002ZM5.20176 9.80015C7.64833 9.80015 9.63167 7.78543 9.63167 5.30015C9.63167 2.81487 7.64833 0.80015 5.20176 0.80015C2.75519 0.80015 0.771857 2.81487 0.771857 5.30015C0.771857 7.78543 2.75519 9.80015 5.20176 9.80015ZM4.90648 2.00022H5.49713V5.00022H4.90648V2.00022ZM4.90648 5.60023V5.00023H7.26909V5.60023H4.90648Z" fill="#666666"></path></svg>