<svg width="12" height="14" viewBox="0 0 12 14" fill="none" xmlns="http://www.w3.org/2000/svg" data-v-ce2de9b2="">
    <path d="M5.99438 13.8627C5.99438 13.8627 6.37531 12.5467 7.13302 11.6395C8.61578 9.86414 11.0044 8.74921 11.0044 5.85896C11.0044 3.15763 8.76133 0.967773 5.99438 0.967773C3.22743 0.967773 0.984375 3.15763 0.984375 5.85896C0.984375 8.74921 3.37072 9.87014 4.85575 11.6395C5.59149 12.5161 5.99438 13.8627 5.99438 13.8627Z" fill="#666666"></path>
    <path d="M5.99407 8.08228C7.25178 8.08228 8.27135 7.08689 8.27135 5.85901C8.27135 4.63113 7.25178 3.63574 5.99407 3.63574C4.73637 3.63574 3.7168 4.63113 3.7168 5.85901C3.7168 7.08689 4.73637 8.08228 5.99407 8.08228Z" fill="white"></path>
</svg>