<svg width="29" height="21" viewBox="0 0 29 21" fill="none" xmlns="http://www.w3.org/2000/svg">
    <path d="M7.86784 4.12099H1.70405C1.31331 4.12099 0.966594 4.43088 0.856526 4.87923C0.746458 5.33417 0.900553 5.81548 1.23076 6.06603C1.23626 6.07262 1.84163 6.54075 2.30942 7.39788C1.34633 8.8682 0.823506 10.6682 0.823506 12.5605C0.823506 17.2154 3.98245 20.9999 7.86784 20.9999C11.7532 20.9999 14.9122 17.2154 14.9122 12.5605C14.9122 7.90557 11.7532 4.12099 7.86784 4.12099ZM7.86784 18.8901C4.95655 18.8901 2.58459 16.0483 2.58459 12.5605C2.58459 10.9517 3.0909 9.42863 4.01547 8.2682C4.26312 7.95832 4.32916 7.49678 4.18057 7.10778C4.0595 6.7913 3.92191 6.50119 3.77882 6.23746H7.86784C10.7791 6.23746 13.1511 9.07918 13.1511 12.5671C13.1511 16.0549 10.7791 18.8901 7.86784 18.8901Z" fill="white"></path>
    <path d="M17.4151 15.9227C17.0244 15.5799 16.4741 15.6788 16.1824 16.1601L14.9551 18.1908L13.6123 16.1337C13.3151 15.6722 12.7593 15.5864 12.374 15.9491C11.9943 16.3051 11.9228 16.9711 12.2199 17.4326L14.2782 20.5974C14.4433 20.8545 14.702 20.9996 14.9716 20.9996C14.9771 20.9996 14.9826 20.9996 14.9881 20.9996C15.2633 20.993 15.522 20.8348 15.6816 20.5644L17.5967 17.3996C17.8939 16.9249 17.8114 16.2656 17.4151 15.9227Z" fill="white"></path>
    <path d="M24.3116 4.3978C18.9568 -1.46368 10.8723 -1.46368 5.512 4.3978C5.15428 4.7934 5.12676 5.45932 5.45697 5.88789C5.78717 6.32305 6.34301 6.34942 6.70073 5.95382C11.3841 0.830803 18.445 0.830803 23.1228 5.95382C23.2934 6.13844 23.5026 6.23074 23.7172 6.23074C23.9594 6.23074 24.196 6.11206 24.3666 5.88789C24.6968 5.45273 24.6693 4.7868 24.3116 4.3978Z" fill="white"></path>
    <path d="M7.86689 8.34036C5.9242 8.34036 4.34473 10.2326 4.34473 12.5601C4.34473 14.8875 5.9242 16.7798 7.86689 16.7798C9.80959 16.7798 11.3891 14.8875 11.3891 12.5601C11.3891 10.2326 9.80959 8.34036 7.86689 8.34036ZM7.86689 14.67C6.8983 14.67 6.10581 13.7271 6.10581 12.5601C6.10581 11.3997 6.8983 10.4502 7.86689 10.4502C8.83549 10.4502 9.62798 11.3997 9.62798 12.5601C9.62798 13.7205 8.83549 14.67 7.86689 14.67Z" fill="white"></path>
    <path d="M7.90021 11.5055H7.8837C7.3994 11.5055 7.01416 11.9802 7.01416 12.5605C7.01416 13.1407 7.41591 13.6154 7.90571 13.6154C8.39551 13.6154 8.78625 13.1407 8.78625 12.5605C8.78625 11.9802 8.39001 11.5055 7.90021 11.5055Z" fill="white"></path>
    <path d="M27.5089 7.3977C27.9767 6.54057 28.582 6.06585 28.5875 6.06585C28.9177 5.8153 29.0718 5.33399 28.9618 4.87905C28.8517 4.4307 28.5105 4.11422 28.1142 4.11422H21.956C18.0706 4.11422 14.9116 7.8988 14.9116 12.5537C14.9116 17.2086 18.0706 20.9932 21.956 20.9932C25.8413 20.9932 29.0003 17.2086 29.0003 12.5537C29.0003 10.668 28.4775 8.86802 27.5089 7.3977ZM21.956 18.8899C19.0447 18.8899 16.6727 16.0482 16.6727 12.5603C16.6727 9.07241 19.0447 6.23068 21.956 6.23068H26.045C25.8964 6.49442 25.7588 6.78452 25.6432 7.101C25.4946 7.4966 25.5607 7.95154 25.8083 8.26143C26.7329 9.42186 27.2392 10.9449 27.2392 12.5537C27.2392 16.0482 24.8672 18.8899 21.956 18.8899Z" fill="white"></path>
    <path d="M21.9558 8.34036C20.0131 8.34036 18.4336 10.2326 18.4336 12.5601C18.4336 14.8875 20.0131 16.7798 21.9558 16.7798C23.8985 16.7798 25.4779 14.8875 25.4779 12.5601C25.4779 10.2326 23.8985 8.34036 21.9558 8.34036ZM21.9558 14.67C20.9817 14.67 20.1947 13.7271 20.1947 12.5601C20.1947 11.3997 20.9817 10.4502 21.9558 10.4502C22.9299 10.4502 23.7168 11.3997 23.7168 12.5601C23.7168 13.7205 22.9299 14.67 21.9558 14.67Z" fill="white"></path>
    <path d="M21.9886 11.5055H21.9721C21.4878 11.5055 21.1025 11.9802 21.1025 12.5605C21.1025 13.1407 21.5098 13.6154 21.9941 13.6154C22.4784 13.6154 22.8746 13.1407 22.8746 12.5605C22.8746 11.9802 22.4784 11.5055 21.9886 11.5055Z" fill="white"></path>
</svg>