<svg width="34" height="20" viewBox="0 0 34 20" fill="none" xmlns="http://www.w3.org/2000/svg">
    <path fill-rule="evenodd" clip-rule="evenodd" d="M18.4422 19.9183C18.4422 19.9183 19.0297 19.8494 19.3306 19.5083C19.606 19.1957 19.5964 18.6059 19.5964 18.6059C19.5964 18.6059 19.5598 15.8519 20.7714 15.4452C21.9654 15.0453 23.4986 18.1085 25.1257 19.2865C26.3548 20.177 27.2877 19.9821 27.2877 19.9821L31.6357 19.9183C31.6357 19.9183 33.9092 19.7704 32.8313 17.8834C32.7422 17.7288 32.2025 16.487 29.5994 13.9363C26.8722 11.2662 27.2384 11.6981 30.5212 7.07886C32.5209 4.26599 33.3201 2.5487 33.0701 1.81439C32.8329 1.11201 31.3618 1.29853 31.3618 1.29853L26.4678 1.33046C26.4678 1.33046 26.1048 1.27837 25.8358 1.44808C25.5731 1.61443 25.4027 2.00259 25.4027 2.00259C25.4027 2.00259 24.629 4.17862 23.5957 6.03034C21.4162 9.93542 20.5453 10.1421 20.1887 9.90014C19.3592 9.33387 19.5662 7.62833 19.5662 6.41681C19.5662 2.63103 20.1107 1.0532 18.5075 0.644882C17.9757 0.508775 17.584 0.419718 16.2228 0.404595C14.4763 0.386111 12.9989 0.411316 12.1615 0.843161C11.6042 1.1305 11.1744 1.77238 11.4371 1.80935C11.7603 1.85472 12.4926 2.01771 12.8811 2.57558C13.3826 3.29644 13.3651 4.91292 13.3651 4.91292C13.3651 4.91292 13.6532 9.36915 12.6916 9.92198C12.0325 10.3017 11.1282 9.5271 9.18428 5.98329C8.18923 4.16853 7.43778 2.16222 7.43778 2.16222C7.43778 2.16222 7.2929 1.78751 7.03339 1.58587C6.71975 1.34222 6.28193 1.2666 6.28193 1.2666L1.63149 1.29853C1.63149 1.29853 0.93257 1.31869 0.676246 1.63964C0.44858 1.92361 0.658734 2.51341 0.658734 2.51341C0.658734 2.51341 4.2998 11.5049 8.42327 16.0367C12.2044 20.1905 16.4967 19.9183 16.4967 19.9183H18.4422Z" fill="white"></path>
</svg>