<svg width="19" height="18" viewBox="0 0 19 18" fill="none" xmlns="http://www.w3.org/2000/svg">
<path d="M18.7364 1.93779L17.0367 0.260346C16.8612 0.0869101 16.6305 0 16.4001 0C16.1698 0 15.9394 0.0865254 15.7639 0.259961L14.4043 1.59976L17.3768 4.5324L18.7364 3.19298C19.0878 2.84611 19.0878 2.2835 18.7364 1.93779Z" fill="#666666"/>
<path d="M5.57861 10.3058L8.55154 13.2388L16.7407 5.16078L13.7678 2.22775L5.57861 10.3058Z" fill="#666666"/>
<path d="M4.93691 10.9333L4.30225 14.4913L7.90984 13.866L4.93691 10.9333Z" fill="#666666"/>
<path d="M13.1552 16.0768H1.94602V4.99927H9.85659L11.8061 3.07648H1.25844C0.56618 3.07648 0 3.63601 0 4.32014V16.7564C0 17.4405 0.56618 18 1.25844 18H13.8424C14.5347 18 15.1009 17.4405 15.1009 16.7564V7.86499L13.1552 9.78432V16.0768Z" fill="#666666"/>
</svg>
