<svg width="20" height="21" viewBox="0 0 20 21" fill="none" xmlns="http://www.w3.org/2000/svg">
    <path fill-rule="evenodd" clip-rule="evenodd" d="M19.5307 5.00386C19.5307 1.96873 17.6997 0 14.8769 0H4.6538C1.831 0 0 1.96873 0 5.00386V15.9959C0 19.0311 1.831 20.9998 4.6538 20.9998H10.2162V20.896V12.7623H7.75867V9.83733H10.2162V7.69258C10.2162 7.69258 10.0394 3.2345 13.6275 3.2345H16.5299V6.21458H14.7214C14.7214 6.21458 13.3904 6.13692 13.3759 7.61397V9.83733H16.3018L15.8798 12.7623H13.3469V20.9998H14.8769C17.6997 20.9998 19.5307 19.0311 19.5307 15.9959V5.00386Z" fill="white"></path>
</svg>